<svg width="32" height="32" viewBox="0 0 32 32" fill="none" xmlns="http://www.w3.org/2000/svg">
<g clip-path="url(#clip0_2066_1264)">
<path d="M27.9004 16.9981L27.8189 17.8856C26.9212 17.0046 26.9212 17.0046 26.2666 17.5143C26.2394 17.4121 26.2136 17.3099 26.1877 17.209C26.2265 16.7446 26.2602 16.2789 26.3041 15.8145C26.4456 14.3165 26.5887 12.8185 26.7336 11.3205C26.8449 10.5276 26.9548 9.73587 27.0686 8.92219H21.9266C21.858 9.72422 21.7972 10.4823 21.7274 11.2416C21.0806 11.794 20.7196 11.7707 20.1427 11.1381C20.1012 10.8871 20.0731 10.6341 20.0586 10.3801C20.0496 9.15763 20.0884 7.93389 20.047 6.71273C19.981 4.75422 19.1285 3.25493 17.2903 2.45549C15.672 1.75177 14.1158 1.95486 12.7058 3.02855C11.3773 4.04015 10.8948 5.43465 10.9245 7.13702H18.192V8.90408H3.92226C4.5889 15.1349 5.24951 21.3201 5.90407 27.4595H7.84447H9.10961C9.10961 27.5449 9.0721 27.6445 9.10961 27.7182C9.2532 28.0261 9.35152 28.4129 9.59601 28.594C9.7396 28.7 10.1264 28.4517 10.4097 28.4051C10.561 28.3805 10.7279 28.4465 10.887 28.4711C10.6374 29.1942 10.4071 29.3029 9.24027 29.2472C9.07605 28.7117 8.7905 28.2212 8.40587 27.8139L8.26489 27.9187L8.85475 29.2434L7.81987 29.233L7.89749 28.0985L7.22742 28.55L7.43052 29.2421C6.72422 29.2421 6.0166 29.2666 5.31029 29.255C4.57294 29.2421 4.28447 28.9471 4.21073 28.2085C4.11673 27.2503 4.01712 26.2931 3.9119 25.3367C3.62731 22.7003 3.33627 20.0653 3.05556 17.4289C2.82012 15.2168 2.60666 13.0022 2.36217 10.7914C2.28585 10.1097 2.1371 9.43576 2.02197 8.75791V7.72303C2.39065 7.20559 2.89386 7.07623 3.51091 7.08787C5.34782 7.11762 7.18603 7.09822 9.07339 7.09822C9.12384 5.71277 9.28554 4.36484 10.1419 3.21742C10.8831 3.14368 11.0099 2.98198 11.0409 2.07388C13.1107 0.178753 15.4806 -0.320577 18.0393 0.803561C20.6795 1.9678 21.8335 4.16692 21.8723 7.05553C22.0184 7.06846 22.1789 7.09563 22.3393 7.09563C24.0986 7.09563 25.8578 7.09563 27.6171 7.09563C28.6339 7.09563 28.9573 7.48371 28.846 8.49143C28.5554 11.1493 28.2691 13.8086 27.9871 16.4691L27.4593 16.1612V16.9632L27.9004 16.9981Z" fill="#658847"/>
<path d="M9.10449 31.6851C9.10449 31.6489 9.10449 31.6127 9.10449 31.5765L9.23385 31.5234H10.5275C11.68 31.5338 12.8314 31.5558 13.9839 31.5545C16.8661 31.5545 19.7482 31.5338 22.6304 31.5234H26.6263L28.308 31.5739C28.308 31.6101 28.308 31.6476 28.308 31.6838L9.10449 31.6851Z" fill="#3877B9"/>
<path d="M23.1443 31.5255H22.6269C22.4448 31.4794 22.2592 31.4482 22.0719 31.4323C18.4085 31.4272 14.7433 31.4272 11.0763 31.4323C10.8891 31.4482 10.7035 31.4794 10.5214 31.5255H9.22779L8.6961 31.4414L8.28604 30.8424C8.26405 30.7377 8.24335 30.6329 8.22266 30.5268C8.22266 30.4453 8.22266 30.3625 8.22266 30.2797L10.9043 30.1504C11.3984 29.9719 11.5692 29.6006 11.5511 29.0974C11.5226 28.285 11.5097 27.47 11.4916 26.6564L12.3117 27.5515C12.335 27.5774 12.3596 27.602 12.3842 27.6266C11.8551 28.3717 11.8835 28.5955 12.5937 29.2423L13.2211 30.1478C13.3987 30.2011 13.5811 30.2367 13.7657 30.2539C16.6246 30.2616 19.4834 30.2616 22.3423 30.2539C22.5254 30.2345 22.7059 30.195 22.8804 30.1361L23.6786 29.2086L23.8079 29.2487C24.121 30.0715 24.3888 30.2577 25.2684 30.2603H25.5271C27.1234 30.2603 27.3382 30.0883 27.496 28.5295C27.7276 26.2864 27.919 24.0394 28.1635 21.8028C28.3019 20.5402 28.5115 19.2841 28.6887 18.0255C29.2333 17.7525 28.6602 17.3709 28.7818 17.0578L28.809 16.6051L28.9099 15.7694C28.9099 15.6633 28.919 15.556 28.9241 15.4499C28.9422 15.1912 28.9616 14.9441 28.9798 14.6906C29.0121 14.4694 29.0444 14.2469 29.0755 14.0256C29.1065 13.8044 29.1363 13.5548 29.1673 13.3206C29.1803 13.1693 29.1919 13.0179 29.2048 12.8666C29.2152 12.6583 29.2268 12.45 29.2385 12.2431C29.2682 12.0646 29.2993 11.886 29.3303 11.7088L29.5709 11.335H29.959L30.0884 11.3518L30.3588 11.366L30.5955 11.4591L30.8736 11.8175L30.9564 11.9636V12.754C30.9564 12.917 30.9473 13.08 30.9422 13.2443C30.937 13.4086 30.8956 13.5962 30.8736 13.7734L30.6912 14.2249L29.7042 14.8044C29.1997 15.2481 29.1609 15.7099 29.5748 16.3567L29.7042 16.4861L30.5515 16.9893L30.4739 17.3774C30.4583 17.6361 30.4415 17.8832 30.426 18.1354C30.3988 18.2648 30.3717 18.4032 30.3458 18.5364C30.329 18.5468 30.2966 18.5571 30.2979 18.5649C30.3015 18.5975 30.3089 18.6297 30.3199 18.6606L30.3122 18.9323C30.3122 19.0539 30.3005 19.1755 30.2954 19.2958C30.1039 20.9775 29.9163 22.6591 29.7184 24.3408C29.5127 26.0962 29.2851 27.8504 29.0884 29.6084C29.0173 30.2552 29.1415 30.9356 28.5865 31.4427L26.6151 31.5125H23.1379L23.1443 31.5255Z" fill="#3877B9"/>
<path d="M23.8191 29.2592L23.6898 29.2191C23.3276 28.6835 23.149 28.1506 23.7092 27.6266L25.0778 27.4223L25.8139 20.2324C26.5499 20.0073 26.6819 19.6826 26.343 19.0074C26.2354 18.7577 26.1438 18.5015 26.0687 18.2403L26.1036 18.0255L26.8009 19.0307L26.9716 18.9375C26.8423 18.6465 26.6676 18.3645 26.5836 18.0592C26.5409 17.8949 26.6599 17.6905 26.7129 17.5029C26.885 17.5676 27.0868 17.5961 27.2226 17.7047C27.4191 17.8857 27.6008 18.082 27.7659 18.292C27.5796 20.2324 27.4024 22.1728 27.2071 24.1042C27.07 25.4676 26.9031 26.8207 26.7582 28.1894C26.6715 29.003 26.4503 29.2333 25.6276 29.2579C25.0209 29.2773 24.4207 29.2605 23.8191 29.2592Z" fill="#658847"/>
<path d="M30.5572 16.9916L29.7099 16.4884C29.6672 16.4431 29.6233 16.3992 29.5806 16.3591L29.7099 14.8067C30.0476 14.9232 30.477 14.3203 30.7448 14.9361C30.3567 14.9038 30.032 14.9788 29.9622 15.4432L29.9311 16.0758L30.1032 16.0551C30.0579 15.852 30.0113 15.6489 29.9661 15.4458C30.4835 15.3979 30.4835 15.7537 30.4912 16.1081L30.5572 16.9916Z" fill="#3877B9"/>
<path d="M27.7599 18.2916C27.5948 18.0817 27.4132 17.8853 27.2166 17.7044C27.0808 17.5957 26.879 17.5672 26.7069 17.5026C26.6604 17.6901 26.5414 17.8906 26.5776 18.0588C26.6552 18.3641 26.8272 18.6461 26.9657 18.9372L26.7949 19.0303L26.0977 18.0252L26.1831 17.2089C26.2102 17.3098 26.2361 17.412 26.2632 17.5142C26.9217 17.0045 26.9217 17.0045 27.8156 17.8855L27.7599 18.2916Z" fill="#658847"/>
<path d="M11.0446 2.0752C11.0135 2.98072 10.8867 3.145 10.1455 3.21874L11.0446 2.0752Z" fill="#658847"/>
<path d="M29.9661 15.4521C30.036 14.9877 30.3542 14.9127 30.7487 14.945C30.6647 15.3331 30.5793 15.7212 30.49 16.117C30.4836 15.7626 30.4784 15.4068 29.9648 15.4547L29.9661 15.4521Z" fill="#3877B9"/>
<path d="M30.7478 14.9445C30.4761 14.3236 30.0466 14.9264 29.7129 14.8152L30.6999 14.2356L30.8823 13.7842C30.8292 14.1671 30.7918 14.5565 30.7478 14.9445Z" fill="#3877B9"/>
<path d="M27.9006 16.9968L27.4634 16.9671V16.165L27.9912 16.4729L27.9006 16.9968Z" fill="#658847"/>
<path d="M26.6211 31.5249L28.5925 31.4551L28.2976 31.5754L26.6211 31.5249Z" fill="#3877B9"/>
<path d="M28.7919 17.0625C28.6703 17.3756 29.2433 17.7572 28.6987 18.0301L28.7919 17.0625Z" fill="#3877B9"/>
<path d="M28.9897 14.6943C28.9716 14.9531 28.9522 15.2001 28.9341 15.4537C28.9522 15.2014 28.9716 14.9479 28.9897 14.6943Z" fill="#3877B9"/>
<path d="M29.1773 13.3252C29.1462 13.5593 29.1165 13.7948 29.0854 14.0302C29.1165 13.7948 29.1475 13.5593 29.1773 13.3252Z" fill="#3877B9"/>
<path d="M30.9463 13.2491C30.9463 13.0848 30.9567 12.9218 30.9605 12.7588C30.9579 12.9218 30.9579 13.0796 30.9463 13.2491Z" fill="#3877B9"/>
<path d="M30.3013 19.3039C30.3013 19.1836 30.3129 19.062 30.3181 18.9404C30.3116 19.062 30.3116 19.1836 30.3013 19.3039Z" fill="#3877B9"/>
<path d="M30.3262 18.6691C30.3152 18.6382 30.3078 18.606 30.3042 18.5734C30.3042 18.5656 30.3353 18.5553 30.3521 18.5449C30.343 18.5863 30.3353 18.6277 30.3262 18.6691Z" fill="#3877B9"/>
<path d="M7.84167 27.4587C7.55449 24.6697 7.27376 21.8807 6.97882 19.093C6.75761 16.9858 6.51573 14.8811 6.28935 12.7738C6.18069 11.7726 6.5028 11.2926 7.6554 11.3017C11.5556 11.3353 15.4558 11.312 19.3547 11.3017C19.6134 11.3017 19.8722 11.1969 20.1309 11.1426C20.7091 11.7751 21.0687 11.7984 21.7168 11.2461C21.8831 11.2777 22.0511 11.2993 22.22 11.3107C23.7219 11.3198 25.2225 11.3211 26.7231 11.325C26.579 12.823 26.4359 14.3209 26.2936 15.8189C26.2496 16.2833 26.216 16.749 26.1772 17.2134C26.147 17.4868 26.1181 17.7589 26.0905 18.0297L26.0556 18.2444C26.0219 18.2587 25.9896 18.2742 25.9572 18.291C25.6778 17.9663 25.1048 17.9637 24.7581 18.291C24.4593 18.5691 24.4605 19.1965 24.8137 19.4811C25.031 19.6558 25.3311 19.7295 25.5899 19.8472L25.7994 20.2353L25.0634 27.4251L23.6947 27.6295C23.7271 26.5804 23.7633 25.5326 23.7866 24.4835C23.7982 24.0022 23.6753 23.587 23.1398 23.4279C23.0247 22.7565 22.6159 22.4667 21.9471 22.4797C21.6108 22.4862 21.2744 22.4461 20.9381 22.4266C21.6793 22.2546 21.7259 21.7372 21.5849 21.1266L21.7142 20.9856H22.1023L22.7737 22.0437L22.9263 22.0619C22.9095 21.71 22.894 21.3581 22.8772 21.0063C23.7568 20.8226 23.9961 20.6065 24.0414 19.8343C24.1371 18.1957 24.2182 16.5524 24.2846 14.9044C24.304 14.4257 24.1552 14.0157 23.6378 13.8449C23.3791 13.0157 23.2058 12.8838 22.3067 12.8825C19.713 12.8825 17.1181 12.8695 14.5231 12.8915C13.9462 12.88 13.3705 12.9497 12.813 13.0985C10.0149 13.9406 8.49752 16.1022 8.6424 19.0322C8.77823 21.7915 8.95417 24.5482 9.11199 27.3113L9.09775 27.4743L7.84167 27.4587Z" fill="#3877B9"/>
<path d="M9.10747 27.4626C9.10747 27.4083 9.11651 27.3539 9.12169 27.2996L10.0621 26.8701L10.8926 27.817L10.8797 28.4703C10.7206 28.4457 10.5537 28.3797 10.4024 28.4043C10.1191 28.4509 9.73228 28.6993 9.58869 28.5932C9.3442 28.4121 9.24588 28.0253 9.10229 27.7174C9.06995 27.6476 9.10359 27.548 9.10747 27.4626ZM10.5136 27.9438L9.82928 27.3216C9.67534 27.4949 9.39207 27.6773 9.40371 27.839C9.41536 28.0007 9.68053 28.2569 9.87586 28.3086C10.0182 28.3435 10.229 28.1171 10.5201 27.9438H10.5136Z" fill="#658847"/>
<path d="M9.23285 29.2488H8.84477L8.25488 27.9241L8.3959 27.8193C8.78095 28.2252 9.06734 28.7143 9.23285 29.2488Z" fill="#658847"/>
<path d="M7.81823 29.2292L7.43015 29.2383L7.22705 28.5462L7.89713 28.0947L7.81823 29.2292Z" fill="#658847"/>
<path d="M10.8916 27.8172L10.0611 26.8702L9.12067 27.2997C8.96285 24.5418 8.78693 21.7851 8.6511 19.0207C8.50622 16.0907 10.0236 13.9291 12.8217 13.0869C13.3792 12.9381 13.9549 12.8684 14.5318 12.88C17.1268 12.858 19.7217 12.8683 22.3154 12.8709C23.2144 12.8709 23.3917 13.0003 23.6465 13.8333C23.5508 15.4529 23.4615 17.0673 23.3554 18.6921C23.2843 19.7917 23.0359 20.0232 21.9415 20.0271C19.974 20.0271 18.0064 20.0271 16.0375 20.0271H15.3312V22.4849L16.0324 22.4138L17.2212 22.4862C16.7038 23.2029 17.1462 23.7061 17.6093 24.2054L15.9354 24.1951L15.806 23.9247L15.6999 23.8161C15.2562 23.3387 14.7776 23.274 14.255 23.6867L14.1256 23.8161L13.8501 23.9622C13.7479 23.6919 13.5642 23.4228 13.5577 23.1498C13.5258 21.8683 13.5228 20.5855 13.5487 19.3014C13.5655 18.5627 13.898 18.2665 14.6405 18.2665C16.5214 18.2562 18.4035 18.2665 20.2844 18.2665H21.7074V15.5913L21.7889 14.7013C21.5768 14.6858 21.4008 14.6612 21.2158 14.6612C18.943 14.6612 16.6714 14.6535 14.3986 14.6612C11.9679 14.6703 10.3056 16.3934 10.4065 18.8344C10.5113 21.4009 10.6588 23.9661 10.7868 26.5313L10.2539 26.0372L10.0973 26.1756L10.8437 27.1872C10.8619 27.398 10.8774 27.6076 10.8916 27.8172Z" fill="#658847"/>
<path d="M21.7101 15.5914V18.2653H20.2872C18.4063 18.2653 16.5241 18.2589 14.6432 18.2653C13.9007 18.2653 13.5682 18.5667 13.5514 19.3002C13.5238 20.5826 13.5268 21.8654 13.5605 23.1487C13.5669 23.4216 13.7506 23.6907 13.8528 23.961L14.0184 24.2198V24.6906L14.519 24.9765L14.1646 25.4939C14.8398 26.0864 15.3392 26.0541 15.9342 25.3736L16.3223 25.1628L21.062 25.177L21.2018 25.3594V27.5029H20.3777C18.0492 27.5029 15.7208 27.5029 13.3923 27.5029C13.0544 27.5234 12.7179 27.5631 12.3846 27.6219C12.36 27.5973 12.3354 27.5728 12.3121 27.5469C12.2746 27.3412 12.2966 27.0915 12.1828 26.9376C11.8115 26.4202 11.4959 25.8898 11.4312 25.2404C11.3018 23.3207 11.1246 21.4023 11.0793 19.4813C11.0263 17.2447 12.7222 15.6005 14.9601 15.5863C17.1981 15.572 19.4619 15.5914 21.7101 15.5914ZM12.0715 25.4978C12.0431 25.8057 12.6912 26.9971 12.9602 27.0502C13.0818 27.0773 13.2357 26.9531 13.4531 26.8665C12.7429 26.4292 12.7313 26.4292 12.7183 25.7177C12.7118 25.3853 12.5812 25.3542 12.3302 25.4914L11.9318 25.4215L12.0715 25.4978Z" fill="#3877B9"/>
<path d="M11.4395 25.248C11.5041 25.8948 11.8197 26.4265 12.191 26.9452C12.301 27.0992 12.279 27.3489 12.3204 27.5545L11.5002 26.6594C11.4787 26.1902 11.4584 25.7198 11.4395 25.248Z" fill="#3877B9"/>
<path d="M10.8465 27.1871L10.1001 26.1755L10.2566 26.0371L10.7896 26.5313L10.8465 27.1871Z" fill="#658847"/>
<path d="M10.9072 30.1551L8.22559 30.2845C8.67188 30.2392 9.11815 30.1745 9.56574 30.1551C10.0133 30.1357 10.4596 30.1551 10.9072 30.1551Z" fill="#3877B9"/>
<path d="M8.70117 31.4395L9.23286 31.5235L9.1035 31.5766L8.70117 31.4395Z" fill="#3877B9"/>
<path d="M10.5195 31.5248C10.7017 31.4787 10.8873 31.4475 11.0745 31.4316C14.7388 31.4264 18.404 31.4264 22.0701 31.4316C22.2573 31.4475 22.4429 31.4787 22.6251 31.5248C19.7429 31.5351 16.8608 31.5506 13.9786 31.5558C12.826 31.5571 11.6747 31.5351 10.5195 31.5248Z" fill="#3877B9"/>
<path d="M12.3889 27.6308C12.7223 27.572 13.0587 27.5322 13.3966 27.5117C15.7251 27.5014 18.0536 27.5117 20.3821 27.5117H21.2061V25.3695C21.2061 25.2893 21.2061 25.2091 21.1996 25.1289V24.2312H18.1131C18.2787 23.9194 18.7935 23.7538 18.5154 23.1691C18.4158 23.3541 18.386 23.5223 18.2813 23.5818C18.1014 23.6892 17.7561 23.8405 17.703 23.7797C17.5287 23.5659 17.4156 23.3089 17.3757 23.0359C17.3641 22.966 17.6952 22.825 17.8815 22.75C18.0838 22.6794 18.2898 22.6198 18.4986 22.5715C18.6021 23.0424 18.875 23.3593 19.373 23.2946C19.8025 23.2377 20.1052 22.9738 20.0625 22.4706L20.589 22.3037L20.9499 22.4331C21.2863 22.4525 21.6226 22.4926 21.959 22.4861C22.6277 22.4732 23.0365 22.7629 23.1516 23.4343C23.0624 24.9271 22.9563 26.4187 22.8929 27.9128C22.8412 29.0421 22.6485 29.2698 21.5269 29.2698C18.5516 29.2698 15.5763 29.2607 12.6011 29.2555C11.8883 28.6035 11.8598 28.3759 12.3889 27.6308Z" fill="#658847"/>
<path d="M13.2256 30.1552L22.8849 30.1436C22.7104 30.2024 22.5299 30.2419 22.3468 30.2613C19.4879 30.269 16.629 30.269 13.7702 30.2613C13.5856 30.2441 13.4032 30.2085 13.2256 30.1552Z" fill="#3877B9"/>
<path d="M29.7103 14.8076L29.581 16.3599C29.167 15.7183 29.2058 15.2513 29.7103 14.8076Z" fill="#3877B9"/>
<path d="M29.5791 16.3535C29.6231 16.3988 29.6671 16.4428 29.7085 16.4829C29.6645 16.4428 29.6231 16.3988 29.5791 16.3535Z" fill="#3877B9"/>
<path d="M25.8077 20.2317L25.5981 19.8436L25.7184 19.6949L25.9513 19.061C25.9513 18.8023 25.9603 18.5436 25.9642 18.2848C25.9966 18.268 26.0289 18.2525 26.0625 18.2383C26.1376 18.4995 26.2292 18.7557 26.3368 19.0054C26.6757 19.6768 26.5437 20.0066 25.8077 20.2317Z" fill="#658847"/>
<path d="M29.97 15.4538C30.0153 15.6568 30.0618 15.8599 30.1071 16.063L29.9351 16.0837L29.9661 15.4512L29.97 15.4538Z" fill="#3877B9"/>
<path d="M25.9633 18.2862C25.9633 18.5449 25.9556 18.8036 25.9504 19.0623C25.5921 18.347 25.4653 18.2862 24.9544 18.5966C25.0242 19.1852 25.0268 19.18 25.6438 19.4064C25.6969 19.4258 25.6943 19.5966 25.7176 19.6962L25.5973 19.8449C25.3386 19.7272 25.0372 19.6535 24.8211 19.4789C24.468 19.1956 24.4667 18.5733 24.7655 18.2887C25.1109 17.9589 25.6839 17.9615 25.9633 18.2862Z" fill="#3877B9"/>
<path d="M20.1801 20.9928L21.7234 20.9824C21.6807 21.029 21.6393 21.0756 21.5941 21.1234L21.206 21.2528C20.783 21.2256 20.3613 21.2023 20.4117 22.0212L19.7817 21.2696L20.1801 20.9928Z" fill="#3877B9"/>
<path d="M21.21 21.2505L21.5981 21.1211C21.7378 21.7317 21.6912 22.2491 20.9513 22.4212L20.5904 22.2918L20.4468 22.2038C20.4468 22.2038 20.461 22.165 20.4701 22.1637C21.0496 22.1353 21.5877 22.0602 21.21 21.2505Z" fill="#3877B9"/>
<path d="M22.1118 20.9785L22.888 20.9992C22.9048 21.3511 22.9203 21.7029 22.9371 22.0548L22.7845 22.0367L22.1118 20.9785Z" fill="#3877B9"/>
<path d="M10.5195 27.9438C10.2349 28.1172 10.0241 28.3448 9.88179 28.3073C9.68646 28.2556 9.42254 28.0137 9.40961 27.8378C9.39667 27.6618 9.68127 27.4949 9.83521 27.3203L10.5195 27.9438Z" fill="#658847"/>
<path d="M21.2097 21.2495C21.5874 22.0593 21.0493 22.1304 20.4684 22.1679C20.4594 22.1679 20.4439 22.2067 20.4452 22.208L20.5888 22.296L20.0623 22.4629L19.9161 22.4292L19.6341 22.1705C19.788 21.754 19.5966 21.4965 19.1697 21.5729C18.7169 21.6544 18.4401 21.8989 18.5022 22.4047L18.5151 22.4512L17.2215 22.4965L16.0327 22.4241C16.056 20.9662 16.056 20.9623 17.5462 20.9662C18.4233 20.9662 19.3016 20.9843 20.18 20.9933L19.7919 21.2676L20.4219 22.0192C20.365 21.199 20.7867 21.2288 21.2097 21.2495Z" fill="#3877B9"/>
<path d="M17.222 22.4955L18.5156 22.4502C18.5118 22.4884 18.5062 22.5264 18.4987 22.564C18.29 22.6123 18.084 22.6719 17.8817 22.7426C17.6954 22.8176 17.3642 22.9586 17.3759 23.0284C17.4158 23.3014 17.5289 23.5584 17.7032 23.7723C17.7562 23.833 18.1016 23.6817 18.2814 23.5743C18.381 23.5148 18.4108 23.3467 18.5156 23.1617C18.7937 23.7464 18.2788 23.912 18.1132 24.2237L17.6061 24.2147C17.1469 23.7153 16.7058 23.2121 17.222 22.4955Z" fill="#658847"/>
<path d="M15.7996 24.2049H14.127V23.8169L14.2563 23.6875L15.7013 23.8169C15.7362 23.8531 15.7724 23.8893 15.8073 23.9268C15.8009 24.0238 15.7996 24.1131 15.7996 24.2049Z" fill="#658847"/>
<path d="M15.694 23.8252L14.249 23.6959C14.7742 23.2832 15.2528 23.3479 15.694 23.8252Z" fill="#658847"/>
<path d="M14.1261 23.8242V24.2123L14.0731 24.233H14.0123L13.8467 23.9743L14.1261 23.8242Z" fill="#658847"/>
<path d="M15.7998 24.204C15.7998 24.1147 15.7998 24.0255 15.7998 23.9375C15.8425 24.0268 15.8865 24.116 15.9292 24.2066L15.7998 24.204Z" fill="#658847"/>
<path d="M14.515 24.9805L14.903 25.1422L15.0324 25.1629L15.2808 25.1784L15.9366 25.3724C15.3416 26.0529 14.8423 26.0852 14.167 25.4927L14.515 24.9805Z" fill="#3877B9"/>
<path d="M12.3304 25.4984C12.5891 25.3612 12.7185 25.3923 12.7185 25.7248C12.7314 26.4362 12.7431 26.4362 13.4533 26.8735C13.2359 26.9601 13.082 27.0843 12.9604 27.0572C12.6914 27.0002 12.0432 25.8088 12.0717 25.5048L12.3304 25.4984Z" fill="#3877B9"/>
<path d="M15.9308 25.3762L15.2749 25.1822L16.3214 25.1641L15.9308 25.3762Z" fill="#3877B9"/>
<path d="M12.3304 25.4972H12.0717L11.9307 25.4248L12.3304 25.4972Z" fill="#3877B9"/>
<path d="M21.061 25.1793L21.1904 25.1211C21.1904 25.2013 21.1904 25.2815 21.1969 25.3617L21.061 25.1793Z" fill="#3877B9"/>
<path d="M18.4985 22.5637C18.506 22.5261 18.5117 22.4881 18.5154 22.4499L18.5024 22.4033L18.6383 22.4447C19.3704 23.2519 19.4493 23.2519 19.9163 22.4292L20.0625 22.4628C20.1052 22.966 19.8038 23.2299 19.373 23.2868C18.875 23.3515 18.602 23.0398 18.4985 22.5637Z" fill="#658847"/>
<path d="M25.7183 19.6899C25.695 19.5903 25.6976 19.4195 25.6445 19.4001C25.0275 19.1737 25.0249 19.1789 24.9551 18.5903C25.4661 18.2811 25.5928 18.3407 25.9511 19.056L25.7183 19.6899Z" fill="#3877B9"/>
<path d="M18.6381 22.4442L18.5023 22.4028C18.4402 21.897 18.7171 21.6525 19.1698 21.571C19.5967 21.4947 19.7882 21.7521 19.6342 22.1686L18.6381 22.4442Z" fill="#3877B9"/>
<path d="M18.6382 22.4445L19.6342 22.1689L19.9162 22.4277C19.4454 23.2517 19.3704 23.2517 18.6382 22.4445Z" fill="#658847"/>
</g>
<defs>
<clipPath id="clip0_2066_1264">
<rect width="28.9404" height="31.4746" fill="white" transform="translate(2.02051 0.209961)"/>
</clipPath>
</defs>
</svg>
